<svg xmlns="http://www.w3.org/2000/svg" xmlns:xlink="http://www.w3.org/1999/xlink" width="321.37" height="190" viewBox="0 0 321.37 190">
  <defs>
    <linearGradient id="linear-gradient" y1="0.5" x2="1" y2="0.5" gradientUnits="objectBoundingBox">
      <stop offset="0" stop-color="#9b80fa"/>
      <stop offset="1" stop-color="#971fad"/>
    </linearGradient>
  </defs>
  <path id="bars" d="M-281.456-370c-4.718,0-8.544-3.358-8.544-7.5s3.825-7.5,8.544-7.5h197.58c4.718,0,8.544,3.358,8.544,7.5s-3.825,7.5-8.544,7.5Zm0-35c-4.718,0-8.544-3.358-8.544-7.5s3.825-7.5,8.544-7.5h106.445c4.719,0,8.545,3.358,8.545,7.5s-3.825,7.5-8.545,7.5Zm0-35c-4.718,0-8.544-3.358-8.544-7.5s3.825-7.5,8.544-7.5H22.826c4.719,0,8.545,3.358,8.545,7.5s-3.825,7.5-8.545,7.5Zm0-35c-4.718,0-8.544-3.358-8.544-7.5s3.825-7.5,8.544-7.5h65.31c4.719,0,8.545,3.358,8.545,7.5s-3.825,7.5-8.545,7.5Zm0-35c-4.718,0-8.544-3.358-8.544-7.5s3.825-7.5,8.544-7.5h140.621c4.718,0,8.544,3.358,8.544,7.5s-3.825,7.5-8.544,7.5Zm0-35c-4.718,0-8.544-3.357-8.544-7.5s3.825-7.5,8.544-7.5H-38.308c4.718,0,8.544,3.358,8.544,7.5s-3.825,7.5-8.544,7.5Z" transform="translate(290 560)" fill="url(#linear-gradient)"/>
</svg>
