<svg xmlns="http://www.w3.org/2000/svg" width="35" height="94.001" viewBox="0 0 35 94.001">
  <path id="status-defeat" d="M-1065-60v-94h10v41.344l5.314,5.313-5.314,5.314V-60Zm25.2-13.8v-4.83a6.662,6.662,0,0,1,.595-2.891,4.528,4.528,0,0,1,1.7-1.946,4.8,4.8,0,0,1,2.6-.693,4.808,4.808,0,0,1,2.6.693,4.528,4.528,0,0,1,1.7,1.946,6.676,6.676,0,0,1,.595,2.891v4.83Zm3.185-6.391a2.359,2.359,0,0,0-.609,1.7V-77.1h4.648v-1.386a2.359,2.359,0,0,0-.608-1.7,2.26,2.26,0,0,0-1.715-.637A2.259,2.259,0,0,0-1036.615-80.188ZM-1039.8-85.4V-93.37h2.492v4.719h1.147V-92.8h2.38v4.145h1.288v-4.9H-1030V-85.4Zm0-9.464v-7.966h2.492v4.662h1.679v-4.088h2.492v4.088H-1030v3.3Zm0-9.059v-7.966h2.492v4.719h1.147v-4.145h2.38v4.145h1.288v-4.9H-1030v8.148Zm0-12.684v-3.248l9.8-4.284v3.416l-1.708.658v3.724l1.708.658v3.36Zm3.248-1.6,2.464.952v-1.9Zm-3.248-5.279v-9.044h2.562v2.87H-1030v3.3h-7.238v2.87Z" transform="translate(1065.001 154)" fill="#c1493f"/>
</svg>
