<svg xmlns="http://www.w3.org/2000/svg" width="30" height="30" viewBox="0 0 30 30">
  <g id="move" transform="translate(-960 -180)">
    <rect id="back" width="30" height="30" transform="translate(960 180)" fill="#192139"/>
    <path id="move-alt" d="M12.586,2H11a1,1,0,1,1,0-2h4a1,1,0,0,1,1,1V5a1,1,0,0,1-2,0V3.414L9.414,8,14,12.586V11a1,1,0,0,1,2,0v4a1,1,0,0,1-1,1H11a1,1,0,0,1,0-2h1.586L8,9.414,3.414,14H5a1,1,0,0,1,0,2H1a1,1,0,0,1-1-1V11a1,1,0,1,1,2,0v1.586L6.586,8,2,3.414V5A1,1,0,1,1,0,5V1A1,1,0,0,1,1,0H5A1,1,0,0,1,5,2H3.414L8,6.586Z" transform="translate(967 187)" fill="#54549b"/>
  </g>
</svg>
