<svg xmlns="http://www.w3.org/2000/svg" width="19.999" height="17.657" viewBox="0 0 19.999 17.657">
  <path id="shuffle" d="M19.548,4.837,16.875,7.51A1,1,0,1,1,15.46,6.1l1.1-1.1H15.1a5.22,5.22,0,0,0-5.089,4.058A5.264,5.264,0,0,0,15.1,13h1.5L15.46,11.853a1,1,0,1,1,1.415-1.414L19.7,13.267a1.028,1.028,0,0,1-.155,1.57L16.875,17.51A1,1,0,0,1,15.46,16.1l1.1-1.1H15.1A7.264,7.264,0,0,1,8.99,11.659,7.22,7.22,0,0,1,2.9,15H1a1,1,0,0,1,0-2H2.9a5.22,5.22,0,0,0,5.06-3.936A5.263,5.263,0,0,0,2.836,5H1A1,1,0,0,1,1,3H2.836A7.264,7.264,0,0,1,8.979,6.387,7.22,7.22,0,0,1,15.1,3h1.508L15.46,1.853A1,1,0,1,1,16.875.439L19.7,3.267a1.028,1.028,0,0,1-.155,1.57Z" transform="translate(0 -0.146)"/>
</svg>
