<svg xmlns="http://www.w3.org/2000/svg" width="35.224" height="94" viewBox="0 0 35.224 94">
  <path id="status-victory" d="M-1065,37V-57h10v41.344l5.314,5.313L-1055-5.029V37Zm25.2-16.29,5.726-2.338-5.726-2.394V12.731l9.8,4.144v3.248l-9.8,4.144Zm0-8.344v-3.3h9.8v3.3Zm2.247-5.257a4.874,4.874,0,0,1-1.821-1.953,5.956,5.956,0,0,1-.651-2.8,6.156,6.156,0,0,1,.5-2.549,4.731,4.731,0,0,1,1.456-1.848L-1036.2.047a2.674,2.674,0,0,0-1.148,2.142,2.188,2.188,0,0,0,.665,1.666,2.488,2.488,0,0,0,1.785.63,2.489,2.489,0,0,0,1.786-.63,2.191,2.191,0,0,0,.665-1.666A2.677,2.677,0,0,0-1033.6.047l1.862-2.086a4.74,4.74,0,0,1,1.456,1.848,6.156,6.156,0,0,1,.5,2.549,5.947,5.947,0,0,1-.652,2.8,4.866,4.866,0,0,1-1.82,1.953,5.03,5.03,0,0,1-2.653.707A5.027,5.027,0,0,1-1037.553,7.11Zm-2.247-9.331v-9.044h2.562V-8.4H-1030v3.3h-7.238v2.87Zm2.261-10.122a4.941,4.941,0,0,1-1.827-1.974,6.05,6.05,0,0,1-.658-2.842,6.053,6.053,0,0,1,.658-2.842,4.941,4.941,0,0,1,1.827-1.974,4.959,4.959,0,0,1,2.639-.714,4.962,4.962,0,0,1,2.64.714A4.953,4.953,0,0,1-1030.434-20a6.053,6.053,0,0,1,.658,2.842,6.05,6.05,0,0,1-.658,2.842,4.953,4.953,0,0,1-1.827,1.974,4.963,4.963,0,0,1-2.64.715A4.96,4.96,0,0,1-1037.54-12.344Zm1.344-6.719a2.146,2.146,0,0,0-.853.79,2.11,2.11,0,0,0-.3,1.113,2.108,2.108,0,0,0,.3,1.113,2.154,2.154,0,0,0,.853.791,2.731,2.731,0,0,0,1.3.293,2.725,2.725,0,0,0,1.3-.293,2.156,2.156,0,0,0,.854-.791,2.108,2.108,0,0,0,.3-1.113,2.11,2.11,0,0,0-.3-1.113,2.148,2.148,0,0,0-.854-.79,2.715,2.715,0,0,0-1.3-.294A2.72,2.72,0,0,0-1036.2-19.063Zm-3.6-4.873v-4.718a5.783,5.783,0,0,1,.448-2.366,3.485,3.485,0,0,1,1.288-1.554,3.518,3.518,0,0,1,1.96-.545,3.459,3.459,0,0,1,1.833.476,3.353,3.353,0,0,1,1.246,1.372L-1030-33.33V-29.8l-2.464,1.667v.9H-1030v3.3Zm2.849-5.516a1.476,1.476,0,0,0-.3,1.008v1.2h2.3v-1.2a1.471,1.471,0,0,0-.3-1.008,1.078,1.078,0,0,0-.847-.336A1.079,1.079,0,0,0-1036.952-29.452Zm-2.849-7.125,3.388-2L-1039.8-40.6v-3.192l6.244,3.7H-1030v3.3h-3.6l-6.2,3.7Z" transform="translate(1065.001 57)" fill="#349647"/>
</svg>
